<?xml version="1.0" standalone="no"?>
<!DOCTYPE svg PUBLIC "-//W3C//DTD SVG 20010904//EN"
 "http://www.w3.org/TR/2001/REC-SVG-20010904/DTD/svg10.dtd">
<svg version="1.0" xmlns="http://www.w3.org/2000/svg"
 width="300.000000pt" height="450.000000pt" viewBox="0 0 300.000000 450.000000"
 preserveAspectRatio="xMidYMid meet">
<metadata>
Created by potrace 1.10, written by Peter Selinger 2001-2011
</metadata>
<g transform="translate(0.000000,450.000000) scale(0.100000,-0.100000)"

fill="#000000" stroke="#000000" stroke-width="50">

<path d="M1642 4019 c-24 -12 -64 -45 -88 -74 -36 -41 -54 -54 -82 -58 -63 -8
-194 -65 -276 -119 -341 -223 -556 -686 -556 -1198 0 -199 30 -475 56 -517 9
-14 31 -25 66 -32 41 -9 195 -64 216 -77 14 -9 -30 -88 -73 -134 -67 -72 -90
-106 -105 -158 -23 -76 19 -161 102 -203 30 -16 37 -23 29 -33 -6 -7 -20 -47
-31 -89 -10 -42 -31 -94 -45 -114 -14 -21 -25 -43 -25 -49 0 -6 -14 -17 -30
-24 -38 -16 -88 -72 -95 -108 -4 -15 -10 -46 -16 -69 -39 -175 24 -252 271
-331 145 -46 284 -63 510 -63 358 1 634 62 760 167 61 52 71 106 46 247 -16
90 -31 117 -89 155 -23 15 -43 30 -45 33 -1 3 -18 29 -37 59 -19 29 -40 78
-46 109 -7 31 -19 66 -27 79 -8 12 -13 24 -11 25 2 2 21 14 42 27 58 39 90 92
95 159 5 70 -9 106 -77 189 -44 55 -72 108 -60 115 2 1 27 14 54 28 57 30 82
66 91 131 9 67 -19 182 -64 258 -38 66 -173 209 -293 312 -84 72 -140 152
-146 211 l-5 44 57 -5 c32 -3 81 1 110 7 52 12 55 11 127 -25 40 -20 84 -49
96 -65 55 -68 158 -88 221 -42 14 11 43 25 63 32 86 28 162 164 139 248 -17
59 -39 86 -136 164 -130 104 -210 184 -265 264 -50 74 -114 138 -168 170 -36
22 -37 25 -17 79 23 64 0 96 -67 96 -22 0 -29 4 -25 14 3 8 9 42 13 75 9 85
-8 111 -74 111 -28 0 -64 -9 -90 -21z m88 -178 c-12 -77 -20 -146 -17 -154 3
-8 27 -20 52 -26 105 -26 188 -90 262 -203 49 -74 141 -165 273 -269 99 -79
126 -119 115 -177 -12 -67 -74 -142 -115 -142 -10 0 -44 16 -76 35 -32 19 -64
35 -72 35 -27 0 -6 -34 40 -64 26 -17 46 -35 44 -41 -1 -5 -22 -11 -46 -13
-39 -3 -47 1 -84 37 -23 22 -82 61 -131 87 l-90 46 -72 -17 c-66 -15 -77 -15
-132 -1 -157 40 -224 107 -238 236 -3 33 -10 60 -14 60 -16 0 -31 -42 -31 -87
0 -94 78 -196 175 -229 30 -10 31 -13 32 -65 2 -99 50 -164 278 -373 59 -54
125 -124 147 -156 71 -105 100 -242 65 -310 -28 -54 -153 -98 -358 -125 -138
-18 -236 -19 -378 -5 -211 22 -471 98 -488 143 -5 12 -17 81 -27 152 -28 189
-26 487 4 650 51 281 172 524 335 671 48 43 193 144 208 144 4 0 9 -9 12 -21
9 -34 29 -17 47 39 22 68 53 111 144 201 58 58 83 75 113 81 21 3 40 5 42 3 2
-1 -6 -65 -19 -142z m-282 -18 c-34 -72 -43 -82 -98 -107 -79 -37 -142 -83
-228 -169 -230 -226 -352 -571 -352 -993 0 -163 14 -336 34 -426 12 -54 12
-58 -5 -58 -35 0 -69 19 -69 40 0 11 6 20 14 20 7 0 19 7 27 16 11 13 9 15
-16 12 -27 -3 -30 0 -37 37 -11 62 -9 120 4 133 9 9 8 12 -5 12 -14 0 -17 10
-17 59 0 33 -3 66 -6 75 -4 11 4 20 27 31 l34 14 -34 1 -34 0 7 46 c3 26 6 62
6 80 0 30 3 34 26 34 15 0 23 4 19 10 -4 6 -16 8 -27 4 -20 -6 -21 -4 -15 47
4 30 7 66 7 80 0 21 7 28 33 37 32 10 32 10 5 11 -33 1 -33 2 -12 86 16 62 18
65 48 66 l31 0 -25 12 c-14 6 -26 12 -27 12 -5 3 44 138 72 200 73 163 201
332 326 430 40 31 118 79 173 106 99 48 121 56 114 42z m368 -41 c6 -4 9 -23
7 -43 -4 -32 -8 -35 -29 -31 -18 3 -24 11 -24 31 0 15 5 32 12 39 14 14 19 14
34 4z m-624 -1894 c98 -20 142 -23 338 -22 193 0 239 3 327 22 55 12 103 22
106 22 2 0 7 -12 10 -27 3 -16 31 -59 61 -97 68 -84 83 -124 67 -177 -37 -122
-247 -202 -567 -216 -370 -15 -684 82 -684 213 0 48 20 84 96 166 45 49 68 84
76 113 11 39 14 42 35 34 12 -4 73 -19 135 -31z m787 -502 l22 -24 -26 -20
c-35 -28 -122 -60 -215 -80 -56 -12 -130 -16 -295 -16 -206 0 -226 2 -319 27
-142 38 -200 77 -165 112 14 14 24 14 100 -4 156 -37 242 -44 443 -38 183 5
322 25 396 55 35 15 34 15 59 -12z m95 -209 c61 -79 7 -138 -176 -191 -114
-33 -235 -46 -423 -46 -223 1 -380 24 -495 72 -54 23 -110 74 -110 101 0 10
16 44 34 75 19 32 38 69 42 85 7 32 8 32 43 8 34 -25 127 -55 221 -72 100 -18
430 -19 530 0 109 20 224 58 245 82 19 20 19 20 41 -30 13 -28 34 -66 48 -84z
m-1186 -169 c82 -69 268 -108 542 -115 282 -7 470 21 611 93 43 21 92 67 101
95 6 19 54 -17 68 -52 11 -26 10 -34 -7 -57 -53 -71 -207 -136 -401 -169 -119
-20 -475 -23 -602 -4 -325 47 -519 173 -409 266 l32 26 17 -28 c9 -16 31 -41
48 -55z m21 -187 c363 -140 1053 -105 1275 65 l46 35 0 -49 c0 -62 -20 -89
-97 -129 -155 -81 -383 -123 -672 -123 -286 0 -542 56 -673 147 -41 28 -65 85
-53 130 l6 24 45 -35 c25 -20 81 -49 123 -65z"/>
<path d="M1651 3866 c-28 -30 -71 -149 -71 -198 0 -46 23 -51 44 -10 12 24 66
206 66 225 0 14 -17 7 -39 -17z"/>
<path d="M1807 3432 c-23 -25 -7 -45 28 -36 25 6 26 5 16 -15 -20 -36 17 -79
54 -65 38 15 45 69 14 108 -25 32 -86 37 -112 8z"/>
<path d="M1364 3000 c6 -172 71 -272 282 -431 154 -116 206 -169 242 -247 23
-49 27 -70 27 -148 0 -86 -2 -94 -34 -145 -30 -48 -30 -52 -8 -30 57 53 75
203 37 303 -39 102 -77 142 -300 313 -155 119 -225 234 -241 398 l-8 82 3 -95z"/>
<path d="M2264 3066 c-11 -28 1 -61 22 -64 25 -4 37 19 28 54 -7 27 -41 33
-50 10z"/>
<path d="M1170 2380 c0 -5 27 -46 60 -91 33 -44 76 -109 95 -144 38 -68 59
-90 74 -81 28 18 -55 171 -141 258 -63 64 -88 81 -88 58z"/>
<path d="M1478 1813 c23 -2 59 -2 80 0 20 2 1 4 -43 4 -44 0 -61 -2 -37 -4z"/>
<path d="M1640 1798 c19 -5 50 -21 68 -35 96 -72 105 -190 21 -274 -21 -21
-35 -39 -31 -39 5 0 25 16 44 36 69 68 74 168 13 247 -33 43 -94 78 -133 76
-9 0 -1 -5 18 -11z"/>
<path d="M1630 1158 c0 -2 7 -25 15 -52 8 -27 15 -62 15 -78 0 -16 4 -27 9
-24 14 9 -17 156 -34 156 -3 0 -5 -1 -5 -2z"/>
</g>
</svg>
