<?xml version="1.0" standalone="no"?>
<!DOCTYPE svg PUBLIC "-//W3C//DTD SVG 20010904//EN"
 "http://www.w3.org/TR/2001/REC-SVG-20010904/DTD/svg10.dtd">
<svg version="1.0" xmlns="http://www.w3.org/2000/svg"
 width="300.000000pt" height="388.000000pt" viewBox="0 0 300.000000 388.000000"
 preserveAspectRatio="xMidYMid meet">
<metadata>
Created by potrace 1.10, written by Peter Selinger 2001-2011
</metadata>
<g transform="translate(0.000000,388.000000) scale(0.100000,-0.100000)"
fill="#000000" stroke="#000000" stroke-width="4">
<path d="M1550 3830 c-24 -24 -26 -53 -5 -74 19 -19 19 -26 -1 -26 -21 0 -94
-43 -94 -55 0 -5 10 -21 21 -35 14 -17 22 -21 26 -12 6 17 61 44 67 34 7 -11
-5 -27 -31 -41 -13 -6 -23 -21 -23 -33 0 -18 -4 -20 -32 -14 -103 22 -102 22
-95 -14 4 -18 7 -56 7 -86 l0 -53 51 15 c28 9 53 13 56 10 3 -2 -7 -27 -22
-55 -28 -51 -28 -81 0 -81 21 0 18 -11 -10 -39 -32 -30 -31 -43 4 -84 l30 -33
-112 -32 c-154 -42 -191 -58 -182 -80 4 -9 39 -102 77 -205 65 -175 69 -189
54 -206 -22 -24 -20 -48 4 -63 15 -10 20 -24 20 -55 l0 -43 -43 0 c-66 0 -91
-42 -45 -74 12 -9 20 -16 18 -17 -3 0 -18 -2 -34 -3 -36 -2 -76 -47 -76 -85 0
-41 35 -81 71 -81 26 0 32 -6 53 -54 147 -332 124 -834 -57 -1227 -30 -66 -38
-77 -66 -82 -29 -6 -31 -9 -31 -54 -1 -86 -40 -147 -132 -204 -73 -46 -107
-139 -73 -199 18 -31 18 -40 2 -40 -7 0 -25 -13 -40 -28 -20 -21 -27 -38 -27
-68 0 -22 5 -45 12 -52 12 -12 12 -12 -37 -27 -11 -3 -15 -19 -15 -53 0 -89
-61 -82 757 -82 685 0 721 1 736 18 22 24 23 111 2 117 -49 15 -49 15 -37 27
7 7 12 32 12 55 0 35 -6 49 -26 68 -15 14 -33 25 -40 25 -17 0 -17 1 1 36 8
16 15 42 15 58 0 45 -39 116 -73 135 -89 47 -147 134 -147 217 0 28 -5 45 -12
46 -7 0 -19 2 -27 2 -20 1 -47 53 -94 176 -147 388 -157 781 -29 1114 26 68
29 71 65 77 46 7 66 32 67 81 0 29 -7 42 -32 63 -18 15 -39 24 -50 22 -22 -6
-24 6 -3 23 18 15 19 42 3 58 -7 7 -32 12 -56 12 l-43 0 4 40 c2 22 11 48 20
58 21 23 21 41 0 64 -15 17 -15 22 5 71 12 28 44 113 71 187 27 74 52 143 56
152 8 21 -26 37 -181 82 l-112 32 29 32 c35 40 36 56 4 88 -30 30 -30 30 -5
37 27 7 25 30 -6 83 -15 25 -24 47 -21 50 3 3 28 -1 55 -9 l50 -14 6 36 c3 20
6 58 6 85 l0 49 -37 -7 c-21 -3 -48 -9 -60 -12 -17 -5 -23 -2 -23 9 0 8 -16
27 -35 41 -20 15 -33 31 -30 37 8 12 61 -16 69 -38 6 -14 11 -10 30 22 l24 39
-44 23 c-24 13 -50 23 -59 23 -15 0 -15 2 -1 22 9 12 16 30 16 40 0 26 -36 58
-65 58 -14 0 -34 -9 -45 -20z m60 -55 c0 -26 -14 -33 -25 -15 -9 14 1 40 15
40 5 0 10 -11 10 -25z m8 -85 c-4 -21 -42 -19 -46 2 -2 10 3 24 10 32 11 13
15 13 26 -2 7 -9 11 -23 10 -32z m105 -155 c27 0 32 -4 32 -25 0 -21 -5 -26
-33 -28 -21 -2 -38 -12 -48 -26 -13 -21 -13 -28 2 -65 13 -33 14 -47 6 -67 -9
-19 -8 -31 5 -59 16 -33 16 -37 0 -64 -36 -62 -17 -80 127 -123 62 -18 110
-38 113 -46 4 -8 -4 -42 -16 -76 -13 -33 -35 -95 -49 -136 -15 -41 -32 -81
-39 -87 -6 -7 -9 -21 -6 -32 3 -10 0 -28 -6 -40 -9 -15 -8 -26 1 -41 10 -16
10 -24 0 -40 -6 -11 -12 -39 -12 -63 0 -47 26 -82 65 -89 13 -2 21 -12 23 -30
2 -18 18 -39 43 -59 52 -41 49 -65 -13 -97 -42 -22 -50 -31 -77 -96 -60 -145
-91 -315 -91 -504 0 -128 16 -285 32 -319 6 -11 8 -25 5 -30 -3 -5 0 -21 7
-35 8 -14 14 -36 14 -49 0 -33 65 -226 102 -302 17 -34 42 -71 56 -83 15 -12
30 -41 39 -72 21 -82 59 -137 124 -181 77 -52 98 -95 82 -163 -13 -56 -6 -76
35 -103 24 -15 26 -21 22 -66 -4 -40 -1 -55 18 -81 29 -39 30 -54 5 -68 -13
-6 -251 -10 -704 -10 -775 0 -731 -5 -688 74 17 31 22 54 19 84 -2 23 0 42 5
42 13 0 34 24 41 46 3 12 19 27 34 34 l27 13 -24 6 c-20 5 -24 14 -27 46 -3
55 22 98 86 142 62 44 115 121 126 186 4 29 18 53 43 78 20 20 49 68 65 105
15 38 36 86 46 106 12 25 14 39 6 42 -7 3 -5 9 5 18 19 15 61 202 80 351 24
199 -1 470 -59 637 -36 103 -58 136 -102 154 -22 9 -40 18 -40 20 0 2 -3 11
-6 20 -4 10 9 29 37 55 26 24 44 49 44 62 0 17 8 25 31 31 34 9 71 53 53 63
-7 5 -6 11 2 21 9 11 8 22 -2 46 -7 18 -17 36 -23 40 -6 4 -4 14 8 26 19 22
21 13 -83 302 -17 47 -31 90 -31 96 0 12 65 42 105 50 51 9 119 34 136 50 23
21 24 36 3 76 -15 29 -15 34 0 65 12 25 13 39 6 54 -8 14 -7 33 5 71 14 47 13
53 -1 69 -9 10 -30 19 -48 21 -26 2 -31 7 -31 28 0 22 4 25 32 22 28 -2 40 6
80 48 l47 50 48 -47 c37 -37 56 -47 81 -48z"/>
</g>
</svg>
