 <svg  version="1.0" xmlns="http://www.w3.org/2000/svg"  width="153.000000pt" height="369.000000pt" viewBox="0 0 153.000000 369.000000"  preserveAspectRatio="xMidYMid meet">  <g transform="translate(0.000000,369.000000) scale(0.100000,-0.100000)" fill="#FFFFFF" stroke="#FFFFFF"> <path d="M670 3664 c-6 -14 -10 -29 -10 -33 0 -4 -17 -13 -37 -20 -76 -27 -101 -71 -67 -119 15 -22 14 -24 -10 -43 -24 -19 -26 -27 -26 -98 0 -63 4 -81 18 -94 10 -10 24 -17 30 -17 17 0 15 -15 -3 -30 -21 -18 -19 -60 6 -86 27 -29 20 -40 -33 -48 -82 -12 -161 -47 -195 -85 -29 -32 -33 -43 -33 -94 0 -67 39 -191 91 -289 5 -10 9 -24 9 -31 0 -8 6 -27 14 -43 8 -16 20 -64 27 -106 10 -63 10 -82 0 -101 -7 -14 -10 -34 -7 -46 3 -11 9 -30 12 -41 3 -13 1 -20 -8 -20 -25 0 -68 -54 -68 -86 0 -21 -9 -36 -35 -57 -32 -25 -35 -33 -35 -78 0 -72 33 -103 117 -113 57 -6 62 -9 72 -38 18 -50 13 -251 -9 -368 -28 -155 -32 -170 -41 -176 -5 -3 -9 -13 -9 -23 0 -10 -7 -32 -15 -47 -8 -16 -15 -36 -16 -44 0 -8 -17 -46 -37 -85 -33 -62 -41 -71 -77 -80 -65 -16 -68 -21 -61 -84 15 -118 16 -116 -98 -226 -57 -55 -111 -112 -120 -127 -26 -44 -22 -164 8 -220 l24 -46 -24 -12 c-23 -13 -24 -18 -24 -106 0 -51 4 -96 10 -99 6 -3 10 -14 10 -24 0 -33 33 -51 86 -49 27 1 94 -1 148 -6 163 -12 456 -10 502 4 27 8 47 9 60 3 25 -13 187 -8 214 7 13 7 33 9 48 4 39 -11 212 -7 284 6 35 7 75 14 91 16 15 1 32 6 37 9 10 6 40 63 40 76 0 18 -31 -5 -36 -27 -3 -13 -10 -22 -14 -19 -5 3 -11 1 -15 -4 -3 -5 -13 -9 -23 -9 -9 0 -44 -4 -77 -11 -33 -6 -70 -9 -82 -7 -13 3 -23 1 -23 -5 0 -5 -5 -9 -11 -9 -5 0 -7 5 -4 10 7 11 -8 14 -17 4 -6 -5 -96 -9 -383 -18 -231 -7 -492 -7 -591 0 -54 4 -123 7 -152 7 -42 -1 -52 2 -52 16 0 9 -9 30 -20 46 -14 21 -20 47 -20 88 0 54 2 58 32 77 18 11 38 22 43 24 6 2 0 14 -12 28 -27 28 -60 122 -58 159 4 62 62 137 179 232 25 21 53 49 62 61 18 28 21 113 5 129 -6 6 -11 23 -11 38 0 25 4 28 45 35 33 4 50 14 64 33 28 39 78 145 86 180 3 17 11 33 16 36 5 4 9 16 9 29 0 12 5 27 12 34 7 7 9 12 5 12 -4 0 -3 8 2 18 39 72 63 436 35 523 -8 25 -20 46 -27 46 -19 2 -100 13 -124 18 -25 6 -47 61 -38 97 3 13 22 34 41 47 28 20 34 29 30 52 -5 35 18 69 49 69 18 0 26 7 31 27 5 16 3 28 -4 31 -6 2 -9 9 -6 17 3 7 0 16 -6 20 -8 5 -6 14 5 32 13 19 15 38 10 81 -4 31 -8 59 -10 62 -2 4 -7 22 -10 40 -3 18 -12 42 -20 53 -7 10 -11 25 -9 32 3 7 1 16 -5 20 -6 3 -11 15 -11 25 0 10 -6 25 -12 32 -7 7 -14 18 -15 23 -1 6 -14 42 -27 80 -58 159 -43 214 68 253 33 11 89 26 124 33 55 10 62 14 62 35 0 13 1 27 2 32 1 4 -10 13 -25 20 -33 16 -34 29 -2 72 14 19 25 37 25 41 0 4 -15 10 -34 13 -40 8 -48 24 -45 88 2 70 7 78 44 78 31 0 55 14 37 22 -19 8 -64 79 -58 93 6 17 44 35 95 44 30 5 34 9 36 44 1 22 8 43 16 48 11 6 8 9 -9 9 -15 0 -26 -8 -32 -26z"/> <path d="M748 3653 c-7 -18 -17 -33 -23 -33 -22 -1 22 -18 63 -25 34 -5 42 -4 42 8 0 11 -9 14 -35 12 -39 -4 -49 6 -40 35 9 27 43 25 55 -2 5 -13 9 -16 9 -8 1 24 -16 43 -38 45 -15 1 -24 -7 -33 -32z"/> <path d="M835 3666 c10 -15 15 -35 12 -48 -5 -21 0 -25 54 -42 46 -14 61 -24 65 -42 6 -22 -22 -84 -38 -84 -21 0 -4 -19 22 -25 16 -4 32 -10 34 -14 3 -3 6 -37 8 -74 3 -73 -5 -87 -49 -87 -30 0 -29 -4 8 -50 34 -42 31 -62 -12 -75 -13 -4 -19 -16 -19 -35 0 -30 4 -32 70 -45 134 -27 223 -79 234 -139 6 -33 -13 -105 -49 -191 -88 -206 -139 -395 -105 -395 19 0 23 -50 5 -70 -23 -26 -15 -52 18 -61 37 -10 56 -36 57 -77 0 -25 6 -35 24 -42 56 -21 73 -94 32 -135 -17 -17 -39 -25 -89 -30 -40 -4 -71 -13 -79 -23 -9 -10 -14 -61 -16 -160 -3 -118 0 -165 18 -256 12 -61 26 -118 30 -127 5 -9 12 -34 16 -55 3 -22 10 -43 14 -49 4 -5 15 -32 24 -60 9 -27 29 -73 46 -102 25 -44 36 -53 80 -68 27 -9 52 -20 54 -24 3 -4 -2 -30 -11 -58 -25 -78 -14 -112 59 -175 90 -79 138 -129 159 -168 16 -31 18 -32 19 -11 0 38 -33 82 -130 170 -85 78 -90 85 -90 123 0 22 5 58 12 79 10 34 9 42 -7 59 -10 11 -36 26 -58 32 -44 13 -64 39 -98 128 -11 30 -25 64 -30 75 -13 30 -39 112 -55 180 -16 66 -30 362 -20 418 6 34 8 35 63 42 31 4 66 11 78 17 31 14 55 60 55 105 0 32 -7 46 -40 78 -24 24 -40 48 -40 63 0 24 -42 74 -70 84 -12 4 -13 8 -2 19 15 16 15 43 0 86 -10 27 -9 46 6 110 17 70 53 176 77 225 21 43 27 57 48 125 45 140 6 211 -144 261 -33 11 -77 23 -97 27 -21 4 -38 10 -38 14 0 3 12 17 25 30 29 27 31 48 9 79 -15 22 -14 24 10 43 25 19 25 23 20 97 -5 56 -12 83 -26 99 -16 17 -18 25 -9 41 28 52 6 96 -59 122 -34 13 -45 24 -54 51 -6 19 -19 35 -29 37 -18 4 -18 3 -2 -22z"/> <path d="M705 3580 c-4 -6 3 -10 14 -10 25 0 27 6 6 13 -8 4 -17 2 -20 -3z"/> <path d="M836 3558 c3 -4 12 -4 21 -1 12 5 14 3 8 -7 -5 -9 -4 -11 3 -6 20 12 13 26 -12 24 -14 -1 -22 -6 -20 -10z"/> <path d="M904 3540 c0 -13 4 -16 10 -10 7 7 7 13 0 20 -6 6 -10 3 -10 -10z"/> <path d="M591 3537 c-1 -21 27 -53 37 -42 4 3 0 12 -9 18 -9 7 -18 19 -22 27 -4 12 -6 11 -6 -3z"/> <path d="M715 3530 c3 -5 8 -10 11 -10 2 0 4 5 4 10 0 6 -5 10 -11 10 -5 0 -7 -4 -4 -10z"/> <path d="M846 3493 c-6 -14 -5 -15 5 -6 7 7 10 15 7 18 -3 3 -9 -2 -12 -12z"/> <path d="M922 3494 c-7 -8 -12 -19 -10 -23 2 -5 11 2 21 15 19 26 10 33 -11 8z"/> <path d="M656 3462 c8 -15 14 -34 15 -42 0 -10 3 -8 8 5 8 21 -5 51 -25 59 -8 3 -8 -4 2 -22z"/> <path d="M891 3457 c-1 -10 -5 -16 -10 -12 -5 3 -12 1 -15 -4 -7 -11 25 -24 35 -14 3 4 3 17 -1 28 -8 18 -9 18 -9 2z"/> <path d="M564 3399 c-3 -6 -2 -15 3 -20 5 -5 9 -1 9 11 0 23 -2 24 -12 9z"/> <path d="M810 3401 c0 -6 4 -13 10 -16 6 -3 7 1 4 9 -7 18 -14 21 -14 7z"/> <path d="M560 3343 c0 -13 5 -23 10 -23 13 0 13 11 0 30 -8 12 -10 11 -10 -7z"/> <path d="M610 3329 c0 -11 4 -18 10 -14 5 3 7 12 3 20 -7 21 -13 19 -13 -6z"/> <path d="M570 3291 c0 -6 12 -11 28 -11 15 0 33 -4 41 -9 7 -5 22 -6 32 -4 35 10 19 20 -32 22 -28 0 -55 3 -60 6 -5 4 -9 1 -9 -4z"/> <path d="M705 3290 c-3 -5 1 -10 10 -10 9 0 13 5 10 10 -3 6 -8 10 -10 10 -2 0 -7 -4 -10 -10z"/> <path d="M946 3282 c-3 -5 1 -9 9 -9 8 0 15 4 15 9 0 4 -4 8 -9 8 -6 0 -12 -4 -15 -8z"/> <path d="M866 3255 c24 -18 31 -18 38 0 4 11 -2 15 -26 15 -30 0 -31 -1 -12 -15z"/> <path d="M648 3233 c-19 -15 -39 -37 -45 -49 -9 -19 -6 -26 20 -45 20 -15 32 -18 35 -11 2 7 11 12 20 13 12 0 10 3 -6 9 -12 5 -30 6 -40 3 -15 -6 -16 -5 -2 12 9 11 10 16 3 11 -30 -17 -10 24 25 53 46 38 38 41 -10 4z"/> <path d="M930 3170 c0 -10 -12 -16 -65 -36 -11 -4 -29 -6 -40 -5 -11 2 -17 0 -13 -4 9 -9 88 -13 88 -4 0 3 13 12 29 19 19 7 28 17 24 26 -6 16 -23 19 -23 4z"/> <path d="M768 3163 c6 -2 18 -2 25 0 6 3 1 5 -13 5 -14 0 -19 -2 -12 -5z"/> <path d="M725 3140 c-3 -5 -1 -10 4 -10 6 0 11 5 11 10 0 6 -2 10 -4 10 -3 0 -8 -4 -11 -10z"/> <path d="M787 3084 c-1 -2 -33 -4 -70 -5 -52 -2 -71 -6 -84 -22 -17 -19 -17 -20 4 -8 30 15 245 15 261 -1 9 -9 12 -8 12 5 0 9 -10 19 -22 21 -30 6 -98 13 -101 10z"/> <path d="M653 3025 c0 -12 3 -12 16 -3 9 7 18 14 20 15 2 2 -5 3 -16 3 -11 0 -20 -7 -20 -15z"/> <path d="M1004 3016 c1 -8 5 -18 8 -22 4 -3 5 1 4 10 -1 8 -5 18 -8 22 -4 3 -5 -1 -4 -10z"/> <path d="M913 3009 c-47 -14 -51 -29 -6 -28 34 1 35 2 13 9 -21 7 -22 8 -5 9 11 1 27 6 35 11 18 12 6 11 -37 -1z"/> <path d="M443 2985 c0 -8 4 -15 9 -15 4 0 8 4 8 9 0 6 -4 12 -8 15 -5 3 -9 -1 -9 -9z"/> <path d="M503 2980 c-1 -16 1 -17 12 -7 7 6 11 15 8 20 -8 13 -19 7 -20 -13z"/> <path d="M560 2990 c-9 -6 -10 -10 -3 -10 6 0 15 5 18 10 8 12 4 12 -15 0z"/> <path d="M1056 2982 c-3 -4 4 -9 15 -9 23 -2 25 3 4 10 -8 4 -16 3 -19 -1z"/> <path d="M650 2949 c0 -5 5 -7 10 -4 6 3 10 8 10 11 0 2 -4 4 -10 4 -5 0 -10 -5 -10 -11z"/> <path d="M713 2945 c0 -8 4 -12 9 -9 5 3 6 10 3 15 -9 13 -12 11 -12 -6z"/> <path d="M893 2945 c-8 -9 -2 -11 23 -10 45 3 53 11 16 17 -16 2 -33 -1 -39 -7z"/> <path d="M1078 2947 c-9 -6 -8 -7 4 -3 10 3 20 1 23 -4 4 -6 13 -10 21 -10 12 0 12 3 2 13 -14 16 -32 17 -50 4z"/> <path d="M497 2943 c-2 -5 -1 -18 2 -30 5 -17 10 -20 21 -13 11 7 11 10 2 10 -7 0 -10 5 -7 10 3 6 1 10 -5 10 -6 0 -8 5 -5 10 3 6 4 10 1 10 -3 0 -7 -3 -9 -7z"/> <path d="M985 2940 c-3 -5 -1 -10 4 -10 6 0 11 5 11 10 0 6 -2 10 -4 10 -3 0 -8 -4 -11 -10z"/> <path d="M548 2933 c7 -3 16 -2 19 1 4 3 -2 6 -13 5 -11 0 -14 -3 -6 -6z"/> <path d="M583 2925 c0 -8 4 -12 9 -9 5 3 6 10 3 15 -9 13 -12 11 -12 -6z"/> <path d="M407 2909 c7 -7 15 -10 18 -7 3 3 -2 9 -12 12 -14 6 -15 5 -6 -5z"/> <path d="M475 2910 c-3 -5 -1 -10 4 -10 6 0 11 5 11 10 0 6 -2 10 -4 10 -3 0 -8 -4 -11 -10z"/> <path d="M628 2913 c7 -3 16 -2 19 1 4 3 -2 6 -13 5 -11 0 -14 -3 -6 -6z"/> <path d="M936 2908 c3 -5 10 -6 15 -3 13 9 11 12 -6 12 -8 0 -12 -4 -9 -9z"/> <path d="M878 2892 c3 -9 1 -13 -5 -9 -5 3 -10 0 -10 -8 0 -17 14 -10 26 14 7 13 6 18 -4 18 -7 0 -11 -7 -7 -15z"/> <path d="M1192 2880 c0 -14 2 -19 5 -12 2 6 2 18 0 25 -3 6 -5 1 -5 -13z"/> <path d="M646 2867 c3 -10 9 -15 12 -12 3 3 0 11 -7 18 -10 9 -11 8 -5 -6z"/> <path d="M381 2854 c0 -11 3 -14 6 -6 3 7 2 16 -1 19 -3 4 -6 -2 -5 -13z"/> <path d="M520 2856 c0 -8 4 -17 9 -20 5 -4 7 3 4 14 -6 23 -13 26 -13 6z"/> <path d="M1172 2821 c1 -16 5 -28 9 -26 6 5 0 55 -7 55 -3 0 -3 -13 -2 -29z"/> <path d="M657 2820 c-3 -12 -3 -19 1 -16 3 4 15 -8 27 -26 11 -18 27 -34 35 -36 11 -3 11 1 -3 16 -9 10 -14 22 -10 27 5 4 2 5 -4 1 -8 -4 -13 -2 -13 6 0 8 -6 22 -13 33 -13 17 -14 17 -20 -5z"/> <path d="M536 2803 c-6 -14 -5 -15 5 -6 7 7 10 15 7 18 -3 3 -9 -2 -12 -12z"/> <path d="M825 2810 c-3 -5 -1 -10 4 -10 6 0 11 5 11 10 0 6 -2 10 -4 10 -3 0 -8 -4 -11 -10z"/> <path d="M478 2803 c7 -3 16 -2 19 1 4 3 -2 6 -13 5 -11 0 -14 -3 -6 -6z"/> <path d="M1147 2803 c-4 -3 -7 -11 -7 -17 0 -6 5 -5 12 2 6 6 9 14 7 17 -3 3 -9 2 -12 -2z"/> <path d="M973 2793 c9 -2 23 -2 30 0 6 3 -1 5 -18 5 -16 0 -22 -2 -12 -5z"/> <path d="M423 2775 c-3 -9 -3 -18 -1 -21 3 -3 8 4 11 16 6 23 -1 27 -10 5z"/> <path d="M496 2760 c8 -43 14 -51 14 -19 0 13 -5 31 -10 39 -7 11 -8 5 -4 -20z"/> <path d="M821 2764 c0 -11 3 -14 6 -6 3 7 2 16 -1 19 -3 4 -6 -2 -5 -13z"/> <path d="M955 2751 c-3 -5 -2 -12 3 -15 5 -3 9 1 9 9 0 17 -3 19 -12 6z"/> <path d="M581 2745 c1 -19 18 -51 18 -35 0 8 -4 22 -9 30 -5 8 -9 11 -9 5z"/> <path d="M1130 2740 c0 -5 5 -10 11 -10 5 0 7 -5 3 -12 -4 -7 -3 -8 5 -4 9 6 9 11 0 22 -14 17 -19 18 -19 4z"/> <path d="M720 2719 c0 -5 5 -7 10 -4 6 3 10 8 10 11 0 2 -4 4 -10 4 -5 0 -10 -5 -10 -11z"/> <path d="M740 2697 c0 -2 6 -19 14 -37 8 -21 15 -27 18 -18 3 7 -3 24 -13 37 -11 13 -19 21 -19 18z"/> <path d="M850 2695 c-1 -5 -3 -18 -5 -28 -2 -10 1 -14 8 -10 6 4 8 0 4 -10 -3 -9 -2 -19 3 -22 18 -11 45 13 47 42 1 23 0 25 -6 8 -5 -11 -7 -23 -5 -26 2 -4 -3 -9 -11 -13 -18 -7 -20 16 -3 47 10 19 9 20 -4 9 -13 -10 -17 -10 -21 0 -3 7 -6 9 -7 3z"/> <path d="M1119 2673 c-13 -16 -12 -17 4 -4 9 7 17 15 17 17 0 8 -8 3 -21 -13z"/> <path d="M726 2642 c-3 -5 1 -9 9 -9 8 0 12 4 9 9 -3 4 -7 8 -9 8 -2 0 -6 -4 -9 -8z"/> <path d="M644 2596 c1 -8 5 -18 8 -22 4 -3 5 1 4 10 -1 8 -5 18 -8 22 -4 3 -5 -1 -4 -10z"/> <path d="M800 2592 c0 -12 27 -60 40 -72 3 -3 14 -18 24 -33 9 -16 20 -26 23 -24 3 3 0 12 -7 19 -11 13 -43 61 -67 102 -7 12 -13 15 -13 8z"/> <path d="M585 2551 c-3 -5 -2 -12 3 -15 5 -3 9 1 9 9 0 17 -3 19 -12 6z"/> <path d="M672 2540 c0 -14 2 -19 5 -12 2 6 2 18 0 25 -3 6 -5 1 -5 -13z"/> <path d="M802 2510 c0 -14 2 -19 5 -12 2 6 2 18 0 25 -3 6 -5 1 -5 -13z"/> <path d="M1055 2520 c-3 -6 1 -7 9 -4 18 7 21 14 7 14 -6 0 -13 -4 -16 -10z"/> <path d="M613 2495 c-3 -9 -3 -18 -1 -21 3 -3 8 4 11 16 6 23 -1 27 -10 5z"/> <path d="M696 2475 c8 -37 14 -45 14 -19 0 10 -5 26 -10 34 -8 11 -9 7 -4 -15z"/> <path d="M1041 2478 c-8 -13 -13 -25 -12 -27 2 -2 -3 -8 -11 -12 -11 -7 -11 -9 0 -9 8 0 16 9 19 20 5 17 8 18 22 8 14 -11 14 -11 4 3 -10 12 -10 18 -1 27 7 7 8 12 2 12 -5 0 -16 -10 -23 -22z"/> <path d="M567 2439 c7 -7 15 -10 18 -7 3 3 -2 9 -12 12 -14 6 -15 5 -6 -5z"/> <path d="M890 2446 c0 -2 7 -9 15 -16 13 -11 14 -10 9 4 -5 14 -24 23 -24 12z"/> <path d="M620 2432 c0 -5 7 -17 16 -28 15 -18 15 -18 5 2 -6 12 -7 24 -4 28 3 3 1 6 -5 6 -7 0 -12 -4 -12 -8z"/> <path d="M710 2420 c0 -5 5 -10 11 -10 5 0 7 5 4 10 -3 6 -8 10 -11 10 -2 0 -4 -4 -4 -10z"/> <path d="M990 2410 c-8 -5 -10 -10 -5 -10 6 0 17 5 25 10 8 5 11 10 5 10 -5 0 -17 -5 -25 -10z"/> <path d="M926 2375 c4 -8 11 -15 16 -15 6 0 5 6 -2 15 -7 8 -14 15 -16 15 -2 0 -1 -7 2 -15z"/> <path d="M630 2376 c0 -2 7 -7 16 -10 8 -3 12 -2 9 4 -6 10 -25 14 -25 6z"/> <path d="M731 2364 c0 -11 3 -14 6 -6 3 7 2 16 -1 19 -3 4 -6 -2 -5 -13z"/> <path d="M880 2364 c0 -8 5 -12 10 -9 6 3 10 10 10 16 0 5 -4 9 -10 9 -5 0 -10 -7 -10 -16z"/> <path d="M533 2339 c-10 -5 8 -8 45 -8 34 -1 62 3 62 7 0 10 -82 10 -107 1z"/> <path d="M905 2340 c-3 -5 -1 -10 4 -10 6 0 11 5 11 10 0 6 -2 10 -4 10 -3 0 -8 -4 -11 -10z"/> <path d="M955 2340 c3 -5 12 -10 20 -10 8 0 17 5 20 10 4 6 -5 10 -20 10 -15 0 -24 -4 -20 -10z"/> <path d="M658 2333 c7 -3 16 -2 19 1 4 3 -2 6 -13 5 -11 0 -14 -3 -6 -6z"/> <path d="M999 2323 c-11 -15 -11 -16 1 -6 11 10 16 9 26 -5 7 -9 15 -14 18 -11 3 3 -2 13 -13 23 -17 15 -19 15 -32 -1z"/> <path d="M565 2288 c-78 -15 -82 -31 -5 -24 88 9 265 9 396 0 100 -6 107 -6 92 10 -18 17 -33 22 -24 7 3 -5 -8 -6 -27 -2 -17 4 -102 8 -187 10 -85 1 -164 4 -175 6 -11 2 -42 -1 -70 -7z"/> <path d="M650 2239 c0 -5 5 -7 10 -4 6 3 10 8 10 11 0 2 -4 4 -10 4 -5 0 -10 -5 -10 -11z"/> <path d="M808 2238 c6 -6 18 -8 28 -6 14 3 12 5 -9 10 -19 3 -25 2 -19 -4z"/> <path d="M735 2230 c3 -5 8 -10 11 -10 2 0 4 5 4 10 0 6 -5 10 -11 10 -5 0 -7 -4 -4 -10z"/> <path d="M979 2234 c6 -3 7 -12 4 -20 -3 -8 0 -14 7 -14 15 0 9 33 -8 36 -7 1 -8 0 -3 -2z"/> <path d="M531 2208 c-13 -5 -19 -13 -15 -23 7 -17 34 -21 34 -5 0 6 5 10 11 10 5 0 8 -4 5 -8 -3 -5 9 -6 25 -4 16 2 28 7 25 10 -3 3 2 10 10 17 15 10 15 12 -2 12 -11 0 -25 -5 -33 -11 -9 -6 -12 -7 -9 -1 8 12 -22 14 -51 3z"/> <path d="M908 2213 c12 -2 32 -2 45 0 12 2 2 4 -23 4 -25 0 -35 -2 -22 -4z"/> <path d="M676 2195 c-11 -8 -17 -17 -14 -20 2 -3 13 4 23 15 21 23 18 25 -9 5z"/> <path d="M827 2193 c-3 -5 9 -9 26 -10 26 -1 28 0 12 7 -26 11 -33 12 -38 3z"/> <path d="M580 2140 c0 -11 -13 -16 -48 -18 -62 -3 -73 -5 -97 -21 -18 -11 -16 -12 15 -5 93 18 595 10 661 -11 14 -5 19 -2 19 12 0 20 27 18 -314 27 -163 4 -222 9 -228 18 -6 10 -8 10 -8 -2z"/> <path d="M430 2065 c-14 -16 -3 -20 19 -6 8 5 9 11 3 15 -5 3 -15 -1 -22 -9z"/> <path d="M525 2071 c-6 -5 -21 -11 -35 -14 -16 -3 -10 -5 17 -6 34 -1 41 2 37 14 -7 18 -7 18 -19 6z"/> <path d="M607 2065 c-4 -8 -1 -17 6 -21 7 -4 9 -4 5 1 -4 4 -3 14 3 22 7 8 8 13 1 13 -5 0 -12 -7 -15 -15z"/> <path d="M749 2063 c-13 -17 -13 -17 6 -3 11 8 22 16 24 17 2 2 0 3 -6 3 -6 0 -17 -8 -24 -17z"/> <path d="M845 2062 c8 -8 155 -10 155 -2 0 4 -36 8 -80 8 -45 -1 -78 -3 -75 -6z"/> <path d="M884 2019 c-5 -9 4 -11 34 -7 24 4 50 1 65 -7 19 -10 24 -10 24 1 0 8 -7 14 -16 15 -9 0 -35 2 -58 5 -26 3 -44 0 -49 -7z"/> <path d="M431 2001 c-8 -5 -9 -11 -3 -15 5 -3 12 1 16 9 6 17 6 18 -13 6z"/> <path d="M521 1994 c0 -11 3 -14 6 -6 3 7 2 16 -1 19 -3 4 -6 -2 -5 -13z"/> <path d="M758 1984 c17 -33 41 -49 53 -36 5 7 6 10 2 7 -4 -3 -20 7 -36 22 -24 22 -27 24 -19 7z"/> <path d="M544 1960 c1 -18 34 -26 48 -12 6 6 1 8 -15 5 -16 -3 -27 0 -30 9 -3 9 -4 9 -3 -2z"/> <path d="M627 1973 c-3 -5 -2 -15 2 -22 5 -7 11 -9 14 -4 3 5 2 15 -2 22 -5 7 -11 9 -14 4z"/> <path d="M878 1958 c5 -5 16 -8 23 -6 8 3 3 7 -10 11 -17 4 -21 3 -13 -5z"/> <path d="M1113 1963 c5 -7 -14 -10 -53 -8 -33 1 -60 -1 -60 -6 0 -5 17 -9 38 -10 20 0 49 -3 65 -5 19 -3 27 0 27 10 0 8 -5 18 -12 22 -6 4 -8 3 -5 -3z"/> <path d="M928 1953 c7 -3 16 -2 19 1 4 3 -2 6 -13 5 -11 0 -14 -3 -6 -6z"/> <path d="M480 1940 c-11 -8 -7 -9 15 -4 37 8 45 14 19 14 -10 0 -26 -5 -34 -10z"/> <path d="M1140 1942 c0 -5 7 -9 15 -9 8 0 12 4 9 9 -3 4 -9 8 -15 8 -5 0 -9 -4 -9 -8z"/> <path d="M536 1921 c-4 -5 -2 -20 3 -33 7 -16 10 -18 10 -6 1 9 4 23 7 32 6 17 -11 23 -20 7z"/> <path d="M586 1918 c3 -4 9 -8 15 -8 5 0 9 4 9 8 0 5 -7 9 -15 9 -8 0 -12 -4 -9 -9z"/> <path d="M641 1914 c0 -11 3 -14 6 -6 3 7 2 16 -1 19 -3 4 -6 -2 -5 -13z"/> <path d="M717 1923 c-4 -3 -2 -12 4 -20 9 -10 8 -13 0 -13 -7 0 -9 -4 -6 -10 12 -19 23 -10 20 15 -3 29 -9 38 -18 28z"/> <path d="M995 1920 c-8 -12 2 -30 17 -30 6 0 5 7 -3 17 -12 15 -12 16 4 10 11 -4 16 -3 12 3 -8 13 -22 13 -30 0z"/> <path d="M814 1908 c-4 -7 -3 -8 4 -4 7 4 17 4 23 0 8 -5 8 -9 -1 -14 -7 -5 -2 -7 13 -7 24 0 24 0 6 18 -22 22 -35 24 -45 7z"/> <path d="M920 1910 c-9 -6 -10 -10 -3 -10 6 0 15 5 18 10 8 12 4 12 -15 0z"/> <path d="M958 1913 c7 -3 16 -2 19 1 4 3 -2 6 -13 5 -11 0 -14 -3 -6 -6z"/> <path d="M980 1871 c0 -5 7 -12 16 -15 14 -5 15 -4 4 9 -14 17 -20 19 -20 6z"/> <path d="M861 1865 c-1 -13 19 -35 31 -35 4 0 8 5 8 10 0 6 -6 10 -14 10 -8 0 -17 6 -19 13 -3 6 -6 7 -6 2z"/> <path d="M735 1850 c3 -5 8 -10 11 -10 2 0 4 5 4 10 0 6 -5 10 -11 10 -5 0 -7 -4 -4 -10z"/> <path d="M945 1832 c-10 -9 -15 -12 -11 -5 4 7 -1 9 -14 6 -35 -9 -33 -23 3 -23 23 0 37 6 41 16 9 24 3 26 -19 6z"/> <path d="M740 1821 c0 -5 5 -13 10 -16 6 -3 10 -2 10 4 0 5 -4 13 -10 16 -5 3 -10 2 -10 -4z"/> <path d="M620 1790 c0 -5 5 -10 11 -10 5 0 7 5 4 10 -3 6 -8 10 -11 10 -2 0 -4 -4 -4 -10z"/> <path d="M676 1758 c3 -5 10 -6 15 -3 13 9 11 12 -6 12 -8 0 -12 -4 -9 -9z"/> <path d="M678 1682 c-3 -27 8 -98 12 -74 5 29 4 94 -1 98 -4 2 -9 -9 -11 -24z"/> <path d="M765 1670 c-3 -5 -1 -10 4 -10 6 0 11 5 11 10 0 6 -2 10 -4 10 -3 0 -8 -4 -11 -10z"/> <path d="M878 1623 c7 -3 16 -2 19 1 4 3 -2 6 -13 5 -11 0 -14 -3 -6 -6z"/> <path d="M626 1573 c-6 -14 -5 -15 5 -6 7 7 10 15 7 18 -3 3 -9 -2 -12 -12z"/> <path d="M688 1563 c7 -3 16 -2 19 1 4 3 -2 6 -13 5 -11 0 -14 -3 -6 -6z"/> <path d="M782 1540 c0 -14 2 -19 5 -12 2 6 2 18 0 25 -3 6 -5 1 -5 -13z"/> <path d="M561 1494 c0 -11 3 -14 6 -6 3 7 2 16 -1 19 -3 4 -6 -2 -5 -13z"/> <path d="M680 1470 c0 -16 4 -30 9 -30 5 0 8 14 7 30 0 17 -4 30 -8 30 -5 0 -8 -13 -8 -30z"/> <path d="M770 1411 c0 -17 4 -32 8 -35 4 -2 6 11 4 30 -5 42 -12 45 -12 5z"/> <path d="M838 1423 c6 -2 18 -2 25 0 6 3 1 5 -13 5 -14 0 -19 -2 -12 -5z"/> <path d="M925 1380 c10 -11 20 -20 23 -20 3 0 -3 9 -13 20 -10 11 -20 20 -23 20 -3 0 3 -9 13 -20z"/> <path d="M593 1370 c-1 -11 2 -22 8 -25 5 -4 6 2 2 11 -5 13 -3 15 8 9 12 -8 12 -6 0 8 -17 21 -16 21 -18 -3z"/> <path d="M673 1351 c0 -11 5 -17 9 -15 11 7 10 34 -1 34 -6 0 -9 -9 -8 -19z"/> <path d="M848 1353 c7 -3 16 -2 19 1 4 3 -2 6 -13 5 -11 0 -14 -3 -6 -6z"/> <path d="M930 1338 c0 -15 18 -17 30 -3 9 11 8 14 -9 12 -12 -1 -21 -5 -21 -9z"/> <path d="M835 1320 c-3 -11 -11 -20 -16 -20 -6 0 -6 -7 0 -19 6 -10 7 -22 3 -26 -4 -5 -1 -5 6 -1 7 4 12 2 12 -6 0 -10 3 -9 10 2 5 9 5 19 -2 27 -10 12 -5 17 17 14 6 -1 2 5 -7 12 -13 10 -15 16 -6 25 9 9 9 12 1 12 -7 0 -15 -9 -18 -20z"/> <path d="M911 1325 c2 -5 -3 -21 -10 -34 -10 -19 -10 -22 0 -19 23 8 35 36 21 50 -8 7 -12 9 -11 3z"/> <path d="M992 1318 c2 -6 10 -14 16 -16 7 -2 10 2 6 12 -7 18 -28 22 -22 4z"/> <path d="M670 1299 c0 -11 -4 -18 -9 -14 -5 3 -12 1 -15 -4 -4 -5 2 -8 11 -7 16 3 33 46 19 46 -3 0 -6 -9 -6 -21z"/> <path d="M515 1291 c-3 -5 -2 -12 3 -15 5 -3 9 1 9 9 0 17 -3 19 -12 6z"/> <path d="M745 1289 c-4 -6 -5 -12 -2 -15 2 -3 7 2 10 11 7 17 1 20 -8 4z"/> <path d="M1030 1268 c0 -8 7 -21 15 -28 19 -16 19 -1 0 24 -12 16 -15 17 -15 4z"/> <path d="M906 1252 c-10 -16 9 -30 21 -17 10 10 9 14 -2 19 -8 3 -16 2 -19 -2z"/> <path d="M720 1211 c-14 -26 -13 -61 2 -61 6 0 9 2 6 6 -3 3 -2 21 2 40 9 38 6 43 -10 15z"/> <path d="M821 1214 c0 -12 6 -27 14 -34 13 -11 13 -14 0 -27 -9 -8 -13 -19 -10 -24 4 -5 2 -9 -2 -9 -5 0 -17 -14 -27 -30 -9 -17 -29 -42 -44 -56 l-27 -25 26 12 c15 6 33 23 40 38 7 14 23 38 36 53 19 25 23 26 37 13 9 -9 17 -11 21 -5 3 5 1 10 -5 10 -6 0 -8 4 -5 10 3 6 -1 7 -9 4 -9 -3 -16 -2 -16 4 0 6 6 13 13 15 9 4 9 6 0 6 -7 1 -10 8 -7 16 4 11 2 13 -9 9 -11 -4 -17 2 -20 18 -4 21 -4 21 -6 2z"/> <path d="M910 1190 c0 -5 4 -10 9 -10 6 0 13 5 16 10 3 6 -1 10 -9 10 -9 0 -16 -4 -16 -10z"/> <path d="M635 1180 c-3 -5 -1 -10 4 -10 6 0 11 5 11 10 0 6 -2 10 -4 10 -3 0 -8 -4 -11 -10z"/> <path d="M917 1153 c-4 -6 -3 -14 3 -18 6 -4 8 -11 5 -16 -3 -5 1 -6 9 -3 9 3 16 16 15 28 0 20 -1 20 -8 1 -8 -20 -8 -20 -12 0 -3 13 -7 16 -12 8z"/> <path d="M556 1123 c-6 -14 -5 -15 5 -6 7 7 10 15 7 18 -3 3 -9 -2 -12 -12z"/> <path d="M692 1103 c-10 -34 -10 -36 3 -19 13 17 21 56 12 56 -2 0 -9 -17 -15 -37z"/> <path d="M918 1093 c7 -3 16 -2 19 1 4 3 -2 6 -13 5 -11 0 -14 -3 -6 -6z"/> <path d="M474 1070 c0 -13 4 -16 10 -10 7 7 7 13 0 20 -6 6 -10 3 -10 -10z"/> <path d="M520 1056 c0 -2 7 -7 16 -10 8 -3 12 -2 9 4 -6 10 -25 14 -25 6z"/> <path d="M806 1042 c-3 -5 1 -9 9 -9 8 0 12 4 9 9 -3 4 -7 8 -9 8 -2 0 -6 -4 -9 -8z"/> <path d="M1056 1036 c4 -12 20 -16 57 -16 58 0 57 12 -2 15 -21 1 -44 5 -50 9 -7 5 -9 1 -5 -8z"/> <path d="M897 1019 c4 -13 8 -18 11 -10 2 7 -1 18 -6 23 -8 8 -9 4 -5 -13z"/> <path d="M953 1028 c-2 -5 19 -8 48 -8 29 0 49 3 45 8 -4 4 -26 7 -48 7 -22 0 -42 -3 -45 -7z"/> <path d="M407 1003 c-11 -12 -17 -13 -17 -5 0 7 -5 10 -11 6 -24 -14 18 -22 120 -22 66 0 99 3 90 9 -8 4 -22 6 -31 3 -10 -3 -23 -2 -30 3 -9 5 -3 10 17 14 29 6 29 7 -8 8 -28 1 -36 -2 -31 -11 5 -8 2 -8 -10 1 -15 12 -17 12 -14 0 2 -10 -6 -14 -27 -13 -18 0 -29 5 -27 12 3 16 -1 15 -21 -5z"/> <path d="M868 1003 c7 -3 16 -2 19 1 4 3 -2 6 -13 5 -11 0 -14 -3 -6 -6z"/> <path d="M1110 986 c0 -2 13 -6 29 -8 17 -2 28 -1 25 4 -5 8 -54 12 -54 4z"/> <path d="M385 950 c-11 -17 5 -27 16 -10 7 12 11 12 17 2 5 -7 16 -10 25 -6 10 3 29 -2 43 -11 15 -9 23 -12 19 -5 -4 7 -2 16 5 20 9 5 9 9 1 14 -6 4 -11 1 -11 -6 0 -9 -3 -9 -10 2 -7 11 -10 11 -10 2 0 -7 -4 -11 -9 -8 -20 13 -80 16 -86 6z"/> <path d="M546 930 c9 -16 17 -30 18 -30 5 0 0 36 -8 48 -15 25 -24 11 -10 -18z"/> <path d="M622 951 c-10 -6 -8 -10 9 -14 26 -7 34 -3 24 12 -7 13 -15 14 -33 2z"/> <path d="M797 949 c7 -7 15 -10 18 -7 3 3 -2 9 -12 12 -14 6 -15 5 -6 -5z"/> <path d="M845 950 c-3 -6 1 -7 9 -4 18 7 21 14 7 14 -6 0 -13 -4 -16 -10z"/> <path d="M995 949 c-4 -6 -5 -12 -2 -15 2 -3 7 2 10 11 7 17 1 20 -8 4z"/> <path d="M708 943 c7 -3 16 -2 19 1 4 3 -2 6 -13 5 -11 0 -14 -3 -6 -6z"/> <path d="M963 935 c0 -8 4 -15 9 -15 4 0 8 4 8 9 0 6 -4 12 -8 15 -5 3 -9 -1 -9 -9z"/> <path d="M1136 941 c-3 -4 6 -6 21 -3 19 4 24 2 18 -8 -5 -9 -4 -11 3 -6 7 4 12 11 12 17 0 11 -47 12 -54 0z"/> <path d="M845 890 c-9 -14 4 -70 16 -70 5 0 4 12 -2 27 -5 14 -8 32 -5 40 6 15 0 17 -9 3z"/> <path d="M500 860 c0 -6 7 -10 15 -10 8 0 15 2 15 4 0 2 -7 6 -15 10 -8 3 -15 1 -15 -4z"/> <path d="M388 853 c7 -3 16 -2 19 1 4 3 -2 6 -13 5 -11 0 -14 -3 -6 -6z"/> <path d="M580 839 c0 -11 5 -17 10 -14 6 3 10 13 10 21 0 8 -4 14 -10 14 -5 0 -10 -9 -10 -21z"/> <path d="M910 846 c-8 -11 -4 -15 20 -18 16 -3 30 -1 30 3 0 4 10 5 23 2 22 -5 22 -5 2 9 -26 19 -61 20 -75 4z"/> <path d="M682 830 c0 -14 2 -19 5 -12 2 6 2 18 0 25 -3 6 -5 1 -5 -13z"/> <path d="M560 801 c0 -6 -6 -8 -13 -5 -8 3 -13 -3 -13 -16 0 -25 2 -25 27 -1 13 12 17 21 10 26 -6 3 -11 2 -11 -4z"/> <path d="M870 798 c0 -5 12 -9 28 -9 96 -6 112 -5 105 2 -11 10 -133 16 -133 7z"/> <path d="M439 787 c5 -5 17 -5 28 2 16 9 15 10 -9 9 -16 -2 -24 -6 -19 -11z"/> <path d="M490 790 c0 -5 7 -7 15 -4 8 4 15 8 15 10 0 2 -7 4 -15 4 -8 0 -15 -4 -15 -10z"/> <path d="M627 760 c-9 -11 -13 -20 -8 -20 11 0 35 29 29 35 -2 2 -12 -4 -21 -15z"/> <path d="M775 750 c-3 -6 1 -7 9 -4 18 7 21 14 7 14 -6 0 -13 -4 -16 -10z"/> <path d="M394 734 c-18 -14 -18 -15 4 -4 12 6 22 13 22 15 0 8 -5 6 -26 -11z"/> <path d="M1310 742 c0 -7 -12 -10 -30 -8 -16 2 -27 0 -25 -4 7 -11 54 -9 61 2 3 5 3 12 0 15 -3 4 -6 1 -6 -5z"/> <path d="M264 732 c4 -3 14 -7 22 -8 9 -1 13 0 10 4 -4 3 -14 7 -22 8 -9 1 -13 0 -10 -4z"/> <path d="M740 730 c-13 -8 -12 -10 3 -10 9 0 17 5 17 10 0 12 -1 12 -20 0z"/> <path d="M485 720 c-3 -6 1 -7 9 -4 18 7 21 14 7 14 -6 0 -13 -4 -16 -10z"/> <path d="M226 713 c-4 -5 -13 -8 -18 -8 -6 0 -13 -7 -15 -15 -4 -12 -3 -12 5 -1 8 11 10 11 14 0 4 -12 7 -12 21 0 18 14 22 31 9 31 -5 0 -12 -3 -16 -7z"/> <path d="M538 689 c-20 -11 -24 -29 -6 -29 6 0 8 3 5 7 -4 3 1 12 11 19 20 16 14 18 -10 3z"/> <path d="M671 675 c-13 -14 -18 -25 -13 -25 13 0 42 28 42 41 0 13 -2 12 -29 -16z"/> <path d="M412 650 c-9 -15 -9 -21 1 -26 6 -4 9 -4 5 1 -4 4 -3 14 4 22 6 7 9 15 7 18 -3 2 -10 -4 -17 -15z"/> <path d="M940 660 c0 -5 7 -7 15 -4 8 4 15 8 15 10 0 2 -7 4 -15 4 -8 0 -15 -4 -15 -10z"/> <path d="M246 652 c-3 -5 1 -9 9 -9 8 0 12 4 9 9 -3 4 -7 8 -9 8 -2 0 -6 -4 -9 -8z"/> <path d="M495 640 c-4 -6 -11 -8 -16 -5 -5 4 -9 1 -9 -4 0 -16 16 -13 30 4 7 8 10 15 7 15 -3 0 -9 -5 -12 -10z"/> <path d="M610 609 c0 -5 5 -7 10 -4 6 3 10 8 10 11 0 2 -4 4 -10 4 -5 0 -10 -5 -10 -11z"/> <path d="M1425 610 c-4 -6 -4 -14 -1 -17 3 -4 6 0 6 8 0 12 2 12 10 -1 5 -8 12 -12 15 -9 3 4 -1 12 -9 18 -10 9 -16 9 -21 1z"/> <path d="M270 589 c0 -5 5 -7 10 -4 6 3 10 8 10 11 0 2 -4 4 -10 4 -5 0 -10 -5 -10 -11z"/> <path d="M311 586 c-8 -10 -9 -16 -1 -21 5 -3 10 0 10 9 0 8 6 17 13 19 7 4 8 6 1 6 -6 1 -17 -5 -23 -13z"/> <path d="M460 592 c0 -5 7 -9 15 -9 8 0 12 4 9 9 -3 4 -9 8 -15 8 -5 0 -9 -4 -9 -8z"/> <path d="M120 586 c0 -2 7 -7 16 -10 8 -3 12 -2 9 4 -6 10 -25 14 -25 6z"/> <path d="M593 584 c3 -6 0 -20 -8 -30 -8 -10 -15 -37 -15 -58 0 -47 7 -45 11 4 2 19 11 42 22 51 18 15 18 16 1 30 -10 8 -15 9 -11 3z"/> <path d="M975 581 c-20 -8 -20 -8 0 -14 11 -4 30 -5 42 -3 13 3 25 0 28 -5 8 -11 25 -2 25 13 0 5 -7 8 -15 5 -8 -4 -17 -2 -20 3 -7 12 -32 12 -60 1z"/> <path d="M443 565 c0 -8 4 -12 9 -9 5 3 6 10 3 15 -9 13 -12 11 -12 -6z"/> <path d="M1450 576 c0 -2 7 -7 16 -10 8 -3 12 -2 9 4 -6 10 -25 14 -25 6z"/> <path d="M340 560 c-12 -8 -11 -10 7 -10 12 0 25 5 28 10 8 13 -15 13 -35 0z"/> <path d="M1480 550 c-9 -6 -10 -10 -3 -10 6 0 15 5 18 10 8 12 4 12 -15 0z"/> <path d="M935 530 c3 -5 14 -10 23 -10 15 0 15 2 2 10 -20 13 -33 13 -25 0z"/> <path d="M1503 520 c-16 -25 -18 -52 -2 -30 8 11 9 6 5 -20 -4 -27 -3 -31 5 -17 5 9 9 33 7 53 -3 32 -4 33 -15 14z"/> <path d="M1090 520 c-9 -6 -10 -10 -3 -10 6 0 15 5 18 10 8 12 4 12 -15 0z"/> <path d="M1480 522 c-10 -4 -17 -23 -19 -48 -4 -64 -8 -79 -20 -76 -17 3 -13 -18 4 -25 18 -6 25 -1 29 19 2 7 6 21 10 30 4 9 4 23 0 30 -10 16 -6 48 8 66 12 13 10 14 -12 4z"/> <path d="M974 509 c-3 -5 -4 -9 -2 -10 2 0 14 -2 28 -5 19 -3 21 -2 10 6 -11 7 -12 10 -2 10 7 0 20 -7 29 -15 8 -9 18 -13 21 -10 3 3 0 11 -6 17 -14 14 -70 19 -78 7z"/> <path d="M420 480 c0 -6 7 -10 15 -10 8 0 15 2 15 4 0 2 -7 6 -15 10 -8 3 -15 1 -15 -4z"/> <path d="M346 468 c3 -5 10 -6 15 -3 13 9 11 12 -6 12 -8 0 -12 -4 -9 -9z"/> <path d="M1333 465 c0 -8 4 -12 9 -9 5 3 6 10 3 15 -9 13 -12 11 -12 -6z"/> <path d="M284 442 c4 -3 14 -7 22 -8 9 -1 13 0 10 4 -4 3 -14 7 -22 8 -9 1 -13 0 -10 -4z"/> <path d="M1511 418 c-19 -44 -63 -98 -73 -91 -5 2 -4 11 2 18 8 9 7 14 -4 18 -8 3 -17 -1 -20 -10 -4 -9 -14 -13 -26 -10 -11 3 -20 2 -20 -3 0 -11 -54 -7 -62 5 -5 6 -8 6 -8 -1 0 -7 -29 -12 -77 -13 -113 -2 -307 -9 -313 -12 -15 -5 -37 -4 -52 4 -10 4 -18 4 -18 0 0 -5 -45 -8 -99 -8 -55 0 -97 3 -95 7 3 5 0 8 -5 8 -6 0 -11 -4 -11 -8 0 -9 -77 -8 -365 2 -94 4 -154 2 -146 -3 7 -5 50 -10 95 -11 44 -1 110 -3 146 -6 80 -5 656 -5 725 0 186 15 323 17 330 6 5 -9 2 -10 -12 -6 -13 4 -20 2 -20 -7 0 -9 10 -12 29 -9 16 3 27 7 24 10 -3 3 2 11 12 18 14 10 23 10 49 -1 28 -12 33 -12 33 0 0 8 -7 18 -16 23 -15 8 -15 11 1 35 9 14 15 37 13 52 -3 26 -3 26 -17 -7z"/> <path d="M583 422 c0 -12 5 -22 9 -22 11 0 10 12 -2 30 -7 12 -9 10 -7 -8z"/> <path d="M280 410 c-9 -6 -10 -10 -3 -10 6 0 15 5 18 10 8 12 4 12 -15 0z"/> <path d="M156 398 c3 -5 10 -6 15 -3 13 9 11 12 -6 12 -8 0 -12 -4 -9 -9z"/> <path d="M447 389 c7 -7 15 -10 18 -7 3 3 -2 9 -12 12 -14 6 -15 5 -6 -5z"/> <path d="M600 372 c0 -5 7 -15 15 -22 8 -7 15 -8 15 -2 0 5 -7 15 -15 22 -8 7 -15 8 -15 2z"/> <path d="M135 279 c-74 -7 -71 -9 28 -15 53 -3 77 -1 77 7 0 6 -6 9 -14 6 -7 -3 -17 -2 -22 1 -5 4 -36 5 -69 1z"/> <path d="M1068 283 c7 -3 16 -2 19 1 4 3 -2 6 -13 5 -11 0 -14 -3 -6 -6z"/> <path d="M1498 284 c-3 -3 -21 -6 -39 -6 l-32 -1 21 -18 c23 -18 31 -36 11 -23 -6 3 -4 -8 5 -24 9 -17 13 -37 10 -46 -10 -27 -24 -29 -334 -46 -183 -9 -1035 -5 -1068 5 -21 7 -22 6 -11 -19 10 -20 19 -26 45 -26 18 0 36 4 39 10 3 5 14 9 23 9 15 -1 15 -2 0 -6 -112 -29 273 -42 707 -23 569 25 563 24 610 74 30 32 36 48 23 62 -5 4 -8 -3 -8 -16 0 -13 -2 -21 -5 -18 -7 7 -12 97 -5 96 18 -1 30 3 30 12 0 11 -13 13 -22 4z m-241 -180 c-3 -3 -12 -4 -19 -1 -8 3 -5 6 6 6 11 1 17 -2 13 -5z m-1140 -10 c-3 -3 -12 -4 -19 -1 -8 3 -5 6 6 6 11 1 17 -2 13 -5z m163 -4 c-8 -5 -24 -9 -35 -9 -16 1 -16 2 5 9 35 11 48 11 30 0z m97 -6 c-3 -3 -12 -4 -19 -1 -8 3 -5 6 6 6 11 1 17 -2 13 -5z"/> <path d="M295 270 c-13 -5 -2 -7 33 -8 28 0 52 3 52 7 0 9 -62 10 -85 1z"/> <path d="M390 268 c0 -5 15 -8 34 -8 19 0 37 3 39 8 3 4 -12 7 -34 7 -21 0 -39 -3 -39 -7z"/> <path d="M590 270 c-21 -7 -21 -8 -5 -9 11 0 27 4 35 9 18 11 5 11 -30 0z"/> <path d="M508 263 c7 -3 16 -2 19 1 4 3 -2 6 -13 5 -11 0 -14 -3 -6 -6z"/> <path d="M576 235 c-3 -9 0 -15 9 -15 16 0 20 16 6 24 -5 3 -11 -1 -15 -9z"/> <path d="M426 225 c4 -8 8 -15 10 -15 2 0 4 7 4 15 0 8 -4 15 -10 15 -5 0 -7 -7 -4 -15z"/> <path d="M670 236 c0 -2 7 -9 15 -16 9 -7 15 -8 15 -2 0 5 -7 12 -15 16 -8 3 -15 4 -15 2z"/> <path d="M978 233 c12 -2 30 -2 40 0 9 3 -1 5 -23 4 -22 0 -30 -2 -17 -4z"/> <path d="M576 195 c-3 -8 -1 -25 4 -37 8 -20 9 -18 9 15 1 39 -3 47 -13 22z"/> <path d="M851 184 c0 -11 3 -14 6 -6 3 7 2 16 -1 19 -3 4 -6 -2 -5 -13z"/> <path d="M1450 191 c0 -5 5 -13 10 -16 6 -3 10 -2 10 4 0 5 -4 13 -10 16 -5 3 -10 2 -10 -4z"/> <path d="M445 179 c-4 -6 -5 -12 -2 -15 2 -3 7 2 10 11 7 17 1 20 -8 4z"/> </g> </svg> 